<svg id="black" xmlns="http://www.w3.org/2000/svg" viewBox="0 0 414.85 499.55"><path d="M671.7,477.18a71.42,71.42,0,0,0,20.62-14c14-13.79,21.06-33.17,21.06-57.61,0-26.69-7.9-47.63-23.49-62.25-23.12-21.68-54.87-21-59.11-20.82H386.92v22.45h1.29c6.5.19,35.48,2.88,35.65,35.49,0,.8,0,1.52,0,2.21V708.43c0,39.63-15.65,73.8-38,83.07-9.3,3.86-18.34,2.78-26.48-.69l-.58-.26h0a60.79,60.79,0,0,1-13.14-8.15c-1.86-3.45-2.91-8.72-1.61-16.75,5.11-31.55-7.32-39.67-25.77-35.6-15.11,3.33-25.77,25.77,4.22,61.75h0c9.94,9.89,19.49,16.12,28.35,19.83C365.25,818.14,383.78,822,403.7,822c25.68,0,53.64-6.38,77.91-21.63s53.18-45,53.18-99.93v-64c16.07,14.92,39.5,22.48,69.79,22.48,59,0,113.66-11.74,113.66-96.92C718.24,517.08,695.33,490.89,671.7,477.18ZM587,345c6.35,4,26.31,19.92,26.31,60.45,0,35.82-7.51,52.84-11.41,59.27h-2.23l-64.89.18V378.2c1.11-26.86,22.74-32.2,32.26-33.25Zm44,0,.68,0c.26,0,25.84-1.25,42.92,14.89,10.79,10.2,16.26,25.59,16.26,45.74,0,18.47-4.7,32.08-14.38,41.62-12.62,12.46-32.52,16.19-49.72,17.23,4.71-12.25,9-31.05,9-59,0-28.36-8.2-47.71-17.28-60.45ZM469.65,781.34c-17.18,10.8-36.84,16.29-55.59,17.76,19.9-19.24,32.3-52.72,32.3-90.67V345h66V578.48a66.79,66.79,0,0,0,0,8.64V700.43C512.32,745.13,489.12,769.11,469.65,781.34Zm77.63-164.17c-9.54-10.49-11.95-23.28-12.49-30.76v-99h57l-.44.6c1.53,1.13,37.46,28.12,37.46,77.17,0,37-15.33,61-23.61,71.28h-.62C578.2,636.45,558.92,630,547.28,617.17Zm85.82,18c9.07-15.74,18.17-39.2,18.17-70,0-35.78-15.52-62-28.67-77.77h12.47c7,1.16,60.71,12.16,60.71,74.59C695.78,613.63,674,630.75,633.1,635.15Z" transform="translate(-303.39 -322.44)"/></svg>