<?xml version="1.0" standalone="no"?>
<!DOCTYPE svg PUBLIC "-//W3C//DTD SVG 20010904//EN"
 "http://www.w3.org/TR/2001/REC-SVG-20010904/DTD/svg10.dtd">
<svg version="1.0" xmlns="http://www.w3.org/2000/svg"
 width="500.000000pt" height="500.000000pt" viewBox="0 0 500.000000 500.000000"
 preserveAspectRatio="xMidYMid meet">
<metadata>
Created by potrace 1.11, written by Peter Selinger 2001-2013
</metadata>
<g transform="translate(0.000000,500.000000) scale(0.100000,-0.100000)"
fill="#000000" stroke="none">
<path d="M1269 4996 c-8 -8 -2 -219 6 -222 5 -2 30 -5 55 -8 139 -14 244 -97
285 -223 20 -60 20 -86 19 -1800 -1 -1297 -4 -1756 -13 -1808 -7 -38 -14 -83
-17 -100 -3 -16 -20 -73 -38 -127 -66 -193 -168 -328 -296 -391 -56 -28 -75
-32 -142 -32 -72 1 -84 4 -164 45 -113 58 -130 80 -127 168 9 295 10 284 -17
337 -78 153 -339 115 -380 -55 -28 -115 16 -253 131 -410 141 -194 378 -318
684 -358 72 -10 337 -8 390 3 222 43 294 65 431 129 340 161 564 438 640 791
24 111 28 197 28 568 1 191 2 347 4 347 2 0 21 -13 41 -29 116 -92 278 -154
466 -177 75 -10 341 -10 455 -1 276 23 513 117 643 256 122 130 181 270 217
511 9 59 6 338 -4 380 -3 14 -11 49 -17 77 -21 106 -97 265 -167 353 -50 63
-126 134 -200 187 l-63 46 52 28 c180 99 296 262 342 484 14 68 17 352 4 400
-3 11 -12 48 -21 83 -36 136 -111 260 -216 355 -57 51 -206 137 -260 150 -14
3 -52 13 -85 23 -55 15 -167 17 -1362 19 -717 2 -1304 2 -1304 1z m1239 -226
c10 0 12 -368 12 -1827 -1 -1984 1 -1908 -55 -2070 -97 -279 -319 -483 -632
-583 -75 -24 -246 -60 -286 -60 -5 0 10 21 32 46 83 95 148 210 199 356 27 75
38 119 69 272 4 17 8 891 10 1941 2 1051 5 1915 7 1920 3 8 455 11 644 5z
m752 1 c12 -1 49 -30 83 -65 84 -86 138 -196 173 -351 4 -16 8 -102 10 -190 3
-226 -23 -395 -87 -545 l-19 -45 -338 0 -337 0 0 440 c-1 472 3 521 48 598 76
129 193 169 467 158z m645 -21 c266 -66 410 -287 399 -614 -12 -340 -189 -511
-573 -552 -68 -7 -68 -7 -46 56 8 24 17 52 20 64 2 12 7 32 10 46 22 97 37
256 37 402 0 91 -2 170 -5 175 -3 4 -8 33 -12 63 -9 77 -59 223 -103 300 -20
36 -38 68 -40 72 -9 20 218 11 313 -12z m-522 -1474 c251 -251 343 -551 283
-931 -23 -143 -130 -387 -212 -484 -9 -10 -161 2 -254 20 -235 46 -392 184
-441 385 -8 34 -12 207 -14 559 -1 281 0 513 2 518 2 4 130 7 283 7 l279 0 74
-74z m443 53 c156 -48 296 -141 380 -252 103 -136 147 -280 146 -482 0 -342
-95 -541 -307 -641 -71 -34 -182 -66 -268 -77 l-47 -7 34 68 c57 113 111 283
132 418 14 85 13 315 -1 401 -33 197 -138 437 -242 553 -13 14 -23 28 -23 32
0 16 130 7 196 -13z"/>
</g>
</svg>
